<?xml version="1.0" encoding="UTF-8"?>
<svg id="LOGO" xmlns="http://www.w3.org/2000/svg" viewBox="0 0 1080 467.68">
  <defs>
    <style>
      .cls-1 {
        fill: #69cce6;
      }

      .cls-1, .cls-2, .cls-3 {
        stroke-width: 0px;
      }

      .cls-2 {
        fill: #0078ab;
      }

      .cls-3 {
        fill: #00b8e0;
      }
    </style>
  </defs>
  <g>
    <g>
      <polygon class="cls-1" points="28.93 133.62 28.93 334.06 0 350.77 0 116.92 28.93 133.62"/>
      <polygon class="cls-1" points="86.79 167.03 86.79 300.66 57.85 317.36 57.85 150.33 86.79 167.03"/>
      <polygon class="cls-1" points="144.66 200.44 144.66 267.25 115.72 283.95 115.72 183.73 144.66 200.44"/>
      <polygon class="cls-1" points="202.51 233.84 173.58 250.55 173.58 217.14 202.51 233.84"/>
    </g>
    <g>
      <polygon class="cls-2" points="405.03 116.92 405.03 350.77 376.1 334.06 376.1 133.62 405.03 116.92"/>
      <polygon class="cls-2" points="347.18 150.33 347.18 317.36 318.25 300.66 318.25 167.03 347.18 150.33"/>
      <polygon class="cls-2" points="289.31 183.73 289.31 283.95 260.38 267.25 260.38 200.44 289.31 183.73"/>
      <polygon class="cls-2" points="231.46 217.14 231.46 250.55 202.52 233.84 231.46 217.14"/>
    </g>
    <g>
      <polygon class="cls-3" points="231.45 16.71 28.93 133.63 0 116.92 202.52 0 231.45 16.71"/>
      <polygon class="cls-3" points="289.31 50.11 86.79 167.03 57.86 150.32 260.37 33.4 289.31 50.11"/>
      <polygon class="cls-3" points="347.17 83.52 144.66 200.44 115.72 183.73 318.24 66.81 347.17 83.52"/>
      <g>
        <polygon class="cls-3" points="202.52 200.43 231.45 217.14 202.51 233.84 173.58 217.14 202.52 200.43"/>
        <polygon class="cls-3" points="260.37 167.03 289.3 183.74 260.37 200.44 231.44 183.74 260.37 167.03"/>
        <polygon class="cls-3" points="318.24 133.62 347.17 150.32 318.24 167.03 289.31 150.33 318.24 133.62"/>
        <polygon class="cls-3" points="405.03 116.91 405.01 116.92 376.08 133.62 347.15 116.92 376.08 100.21 376.1 100.21 405.03 116.91"/>
      </g>
    </g>
    <g>
      <polygon class="cls-1" points="202.51 434.28 173.58 450.98 144.65 434.29 202.52 400.88 202.51 434.28"/>
      <polygon class="cls-1" points="202.51 367.47 115.72 417.58 86.79 400.87 202.51 334.06 202.51 367.47"/>
      <polygon class="cls-1" points="202.51 300.65 57.86 384.17 28.93 367.47 202.52 267.25 202.51 300.65"/>
    </g>
    <g>
      <polygon class="cls-2" points="260.38 434.29 231.45 450.98 202.52 434.28 202.52 400.88 260.38 434.29"/>
      <polygon class="cls-2" points="318.24 400.87 289.31 417.58 202.52 367.47 202.52 334.06 318.24 400.87"/>
      <polygon class="cls-2" points="376.1 367.47 347.18 384.17 202.52 300.65 202.52 267.25 376.1 367.47"/>
    </g>
  </g>
  <g>
    <path class="cls-2" d="M521.81,135.3h-36.16v215.47h-20.77v-215.47h-36.46v-18.38h93.39v18.38Z"/>
    <path class="cls-2" d="M621.1,350.77h-75.91V116.92h75.91v18.38h-55.14v87.26h50.21v18.68h-50.21v91.15h55.14v18.38Z"/>
    <path class="cls-2" d="M738.17,334.18c0,4.88-1.59,8.87-4.78,11.95-3.19,3.09-7.22,4.63-12.1,4.63h-60.22c-4.88,0-8.87-1.54-11.95-4.63-3.09-3.09-4.63-7.07-4.63-11.95v-200.67c0-4.88,1.54-8.86,4.63-11.95s7.07-4.63,11.95-4.63h60.22c4.88,0,8.91,1.55,12.1,4.63,3.19,3.09,4.78,7.07,4.78,11.95v54.39h-20.92v-52.6h-52v197.09h52v-57.53h20.92v59.32Z"/>
    <path class="cls-2" d="M836.26,350.77h-74.71V116.92h20.77v215.47h53.94v18.38Z"/>
    <path class="cls-2" d="M962.93,350.76h-20.57l-8.2-51.87h-46.35l-8.2,51.87h-19.97v-.6l41.58-233.24h20.42l41.28,233.84ZM931.48,280.56l-20.42-126.38-20.57,126.38h40.99Z"/>
    <path class="cls-2" d="M1080,334.18c0,4.88-1.55,8.87-4.63,11.95-3.09,3.09-7.07,4.63-11.95,4.63h-77.1V116.92h76.5c4.88,0,8.86,1.55,11.95,4.63,3.09,3.09,4.63,7.07,4.63,11.95v69.48c0,6.18-2.79,11.36-8.37,15.54-5.48,3.29-10.96,6.57-16.44,9.86l17.63,11.36c5.18,3.19,7.77,8.17,7.77,14.94v79.49ZM1058.48,205.68v-70.38h-51.4v84.42h30.63l20.77-14.05ZM1059.08,332.39v-80.84l-21.07-13.75h-30.93v94.58h52Z"/>
  </g>
</svg>