<?xml version="1.0" encoding="UTF-8"?>
<svg id="LOGO" xmlns="http://www.w3.org/2000/svg" viewBox="0 0 935.32 1080">
  <defs>
    <style>
      .cls-1 {
        fill: #69cce6;
      }

      .cls-1, .cls-2, .cls-3 {
        stroke-width: 0px;
      }

      .cls-2 {
        fill: #0078ab;
      }

      .cls-3 {
        fill: #00b8e0;
      }
    </style>
  </defs>
  <g>
    <polygon class="cls-1" points="66.82 308.57 66.82 771.43 0 810.01 0 270 66.82 308.57"/>
    <polygon class="cls-1" points="200.42 385.72 200.42 694.29 133.6 732.86 133.6 347.14 200.42 385.72"/>
    <polygon class="cls-1" points="334.05 462.86 334.05 617.15 267.23 655.72 267.23 424.29 334.05 462.86"/>
    <polygon class="cls-1" points="467.65 540 400.83 578.58 400.83 501.43 467.65 540"/>
  </g>
  <g>
    <polygon class="cls-2" points="935.32 270 935.32 810.01 868.51 771.43 868.51 308.57 935.32 270"/>
    <polygon class="cls-2" points="801.73 347.14 801.73 732.86 734.91 694.29 734.91 385.72 801.73 347.14"/>
    <polygon class="cls-2" points="668.09 424.29 668.09 655.72 601.28 617.15 601.28 462.86 668.09 424.29"/>
    <polygon class="cls-2" points="534.49 501.43 534.49 578.58 467.68 540 534.49 501.43"/>
  </g>
  <g>
    <polygon class="cls-3" points="534.47 38.58 66.82 308.58 0 270 467.66 0 534.47 38.58"/>
    <polygon class="cls-3" points="668.08 115.71 200.42 385.71 133.61 347.13 601.27 77.13 668.08 115.71"/>
    <polygon class="cls-3" points="801.71 192.86 334.05 462.87 267.24 424.29 734.89 154.29 801.71 192.86"/>
    <g>
      <polygon class="cls-3" points="467.66 462.85 534.47 501.42 467.66 540 400.85 501.43 467.66 462.85"/>
      <polygon class="cls-3" points="601.27 385.72 668.08 424.29 601.26 462.87 534.45 424.3 601.27 385.72"/>
      <polygon class="cls-3" points="734.89 308.57 801.7 347.14 734.89 385.72 668.08 347.14 734.89 308.57"/>
      <polygon class="cls-3" points="935.32 269.98 935.28 269.99 868.47 308.57 801.66 270 868.47 231.42 868.52 231.41 935.32 269.98"/>
    </g>
  </g>
  <g>
    <polygon class="cls-1" points="467.65 1002.85 400.84 1041.43 334.04 1002.88 467.66 925.73 467.65 1002.85"/>
    <polygon class="cls-1" points="467.66 848.58 267.23 964.3 200.42 925.72 467.65 771.43 467.66 848.58"/>
    <polygon class="cls-1" points="467.65 694.28 133.61 887.14 66.81 848.59 467.66 617.16 467.65 694.28"/>
  </g>
  <g>
    <polygon class="cls-2" points="601.28 1002.88 534.48 1041.43 467.68 1002.85 467.66 925.73 601.28 1002.88"/>
    <polygon class="cls-2" points="734.9 925.72 668.09 964.3 467.67 848.58 467.67 771.43 734.9 925.72"/>
    <polygon class="cls-2" points="868.51 848.59 801.72 887.14 467.67 694.28 467.66 617.16 868.51 848.59"/>
  </g>
</svg>